<svg width="49" height="50" viewBox="0 0 49 50" fill="none" xmlns="http://www.w3.org/2000/svg">
<g filter="url(#filter0_d_151_357)">
<rect x="4" width="40.1743" height="41.0191" rx="8" fill="#64A46B" fill-opacity="0.7" shape-rendering="crispEdges"/>
</g>
<g opacity="0.8">
<path d="M25.9426 15.3417L29.5418 20.554H27.6871H26.3076L27.0576 21.7117L30.9151 27.6664H25.5794H24.8294V28.4164V32.1809H22.212V28.4164V27.6664H21.462H16.1343L20.0308 21.7148L20.7908 20.554H19.4034H17.4816L21.0053 15.3352L21.795 14.1656H20.3837H18.9795L23.5207 7.66475L28.0619 14.1656H26.5597H25.1304L25.9426 15.3417Z" stroke="black" stroke-opacity="0.8" stroke-width="1.5"/>
<path d="M28.031 17.5987L32.2464 12.2324L37.2909 18.6802H34.81L38.5314 23.492H35.761L39.6478 28.8491H33.983V32.2494H30.5097V29.6941" stroke="black" stroke-opacity="0.8" stroke-width="1.5"/>
<path d="M19.0118 17.5987L14.7965 12.2324L9.75191 18.6802H12.2328L8.51145 23.492H11.2818L7.39503 28.8491H13.0598V32.2494H16.5331V29.6941" stroke="black" stroke-opacity="0.8" stroke-width="1.5"/>
</g>
<defs>
<filter id="filter0_d_151_357" x="0" y="0" width="48.1743" height="49.0191" filterUnits="userSpaceOnUse" color-interpolation-filters="sRGB">
<feFlood flood-opacity="0" result="BackgroundImageFix"/>
<feColorMatrix in="SourceAlpha" type="matrix" values="0 0 0 0 0 0 0 0 0 0 0 0 0 0 0 0 0 0 127 0" result="hardAlpha"/>
<feOffset dy="4"/>
<feGaussianBlur stdDeviation="2"/>
<feComposite in2="hardAlpha" operator="out"/>
<feColorMatrix type="matrix" values="0 0 0 0 0 0 0 0 0 0 0 0 0 0 0 0 0 0 0.25 0"/>
<feBlend mode="normal" in2="BackgroundImageFix" result="effect1_dropShadow_151_357"/>
<feBlend mode="normal" in="SourceGraphic" in2="effect1_dropShadow_151_357" result="shape"/>
</filter>
</defs>
</svg>
