<svg width="61" height="46" viewBox="0 0 61 46" fill="none" xmlns="http://www.w3.org/2000/svg">
<g opacity="0.8">
<path d="M35.2576 15.2495L42.2204 25.125H37.863H36.4677L37.2374 26.2888L44.6105 37.4359H34.138H33.388V38.1859V45.25H27.6114V38.1859V37.4359H26.8614H16.3971L23.8467 26.2918L24.6266 25.125H23.2231H18.7606L25.5731 15.243L26.3837 14.0673H24.9557H21.3875L30.4997 1.29159L39.612 14.0673H35.8706H34.4241L35.2576 15.2495Z" stroke="black" stroke-width="1.5"/>
<path d="M38.4692 19.4616L45.9191 10.1731L54.8343 21.3336H50.4498L57.0266 29.6623H52.1305L58.9996 38.9349H48.9882V44.8205H42.8499V40.3975" stroke="black" stroke-width="1.5"/>
<path d="M22.5303 19.4616L15.0804 10.1731L6.16521 21.3336H10.5498L3.97294 29.6623H8.86901L1.99989 38.9349H12.0113V44.8205H18.1496V40.3975" stroke="black" stroke-width="1.5"/>
</g>
</svg>
