<svg width="15" height="21" viewBox="0 0 15 21" fill="none" xmlns="http://www.w3.org/2000/svg">
<path d="M0.844363 10.1067C0.197232 10.6474 0.190134 11.4943 0.828508 11.9981L11.2314 20.2092C11.8698 20.713 12.9119 20.6831 13.559 20.1424C14.2062 19.6017 14.2133 18.7548 13.5749 18.251L4.32786 10.9523L13.7017 3.11953C14.3489 2.5788 14.356 1.73197 13.7176 1.2281C13.0792 0.724235 12.0371 0.754124 11.39 1.29486L0.844363 10.1067ZM4.48411 9.61068L2.01145 9.68159L1.98903 12.3565L4.46169 12.2856L4.48411 9.61068Z" fill="#758B8B"/>
<path d="M0.844363 10.1067C0.197232 10.6474 0.190134 11.4943 0.828508 11.9981L11.2314 20.2092C11.8698 20.713 12.9119 20.6831 13.559 20.1424C14.2062 19.6017 14.2133 18.7548 13.5749 18.251L4.32786 10.9523L13.7017 3.11953C14.3489 2.5788 14.356 1.73197 13.7176 1.2281C13.0792 0.724235 12.0371 0.754124 11.39 1.29486L0.844363 10.1067ZM4.48411 9.61068L2.01145 9.68159L1.98903 12.3565L4.46169 12.2856L4.48411 9.61068Z" fill="black" fill-opacity="0.2"/>
</svg>
