<svg width="63" height="44" viewBox="0 0 63 44" fill="none" xmlns="http://www.w3.org/2000/svg">
<g filter="url(#filter0_d_70_307)">
<path d="M4.924 17.6H10.096V19.088H6.46V20.876H9.268V22.364H6.46V26H4.924V17.6ZM11.2287 17.6H12.7647V26H11.2287V17.6ZM14.6154 17.6H16.1514V24.632H19.6074V26H14.6154V17.6ZM21.5208 19.088H19.1448V17.6H25.4328V19.088H23.0568V26H21.5208V19.088ZM26.5334 17.6H31.9094V19.088H28.1054V20.876H31.0574V22.364H28.1054V24.512H32.0294V26H26.5334V17.6ZM33.3537 17.6H36.4257C37.3217 17.6 38.0257 17.816 38.5377 18.248C39.0577 18.672 39.3177 19.304 39.3177 20.144C39.3177 20.728 39.1937 21.208 38.9457 21.584C38.6977 21.952 38.3457 22.248 37.8897 22.472L39.7857 26H38.0697L36.4497 22.88H36.3897H34.8897V26H33.3537V17.6ZM36.0177 21.596C37.1457 21.596 37.7097 21.14 37.7097 20.228C37.7097 19.788 37.5817 19.456 37.3257 19.232C37.0697 19 36.6537 18.884 36.0777 18.884H34.8897V21.596H36.0177Z" fill="#758B8B"/>
<path d="M4.924 17.6H10.096V19.088H6.46V20.876H9.268V22.364H6.46V26H4.924V17.6ZM11.2287 17.6H12.7647V26H11.2287V17.6ZM14.6154 17.6H16.1514V24.632H19.6074V26H14.6154V17.6ZM21.5208 19.088H19.1448V17.6H25.4328V19.088H23.0568V26H21.5208V19.088ZM26.5334 17.6H31.9094V19.088H28.1054V20.876H31.0574V22.364H28.1054V24.512H32.0294V26H26.5334V17.6ZM33.3537 17.6H36.4257C37.3217 17.6 38.0257 17.816 38.5377 18.248C39.0577 18.672 39.3177 19.304 39.3177 20.144C39.3177 20.728 39.1937 21.208 38.9457 21.584C38.6977 21.952 38.3457 22.248 37.8897 22.472L39.7857 26H38.0697L36.4497 22.88H36.3897H34.8897V26H33.3537V17.6ZM36.0177 21.596C37.1457 21.596 37.7097 21.14 37.7097 20.228C37.7097 19.788 37.5817 19.456 37.3257 19.232C37.0697 19 36.6537 18.884 36.0777 18.884H34.8897V21.596H36.0177Z" fill="black" fill-opacity="0.2"/>
</g>
<g filter="url(#filter1_d_70_307)">
<path d="M57.8168 23.0133C58.4045 22.4314 58.4186 21.4709 57.8485 20.868L48.5568 11.0424C47.9866 10.4394 47.048 10.4224 46.4604 11.0042C45.8727 11.5861 45.8585 12.5466 46.4287 13.1496L54.6879 21.8834L46.1755 30.3121C45.5878 30.894 45.5736 31.8545 46.1438 32.4574C46.714 33.0604 47.6526 33.0775 48.2403 32.4956L57.8168 23.0133ZM54.9776 23.4061L56.762 23.4385L56.8068 20.4046L55.0224 20.3721L54.9776 23.4061Z" fill="#758B8B"/>
<path d="M57.8168 23.0133C58.4045 22.4314 58.4186 21.4709 57.8485 20.868L48.5568 11.0424C47.9866 10.4394 47.048 10.4224 46.4604 11.0042C45.8727 11.5861 45.8585 12.5466 46.4287 13.1496L54.6879 21.8834L46.1755 30.3121C45.5878 30.894 45.5736 31.8545 46.1438 32.4574C46.714 33.0604 47.6526 33.0775 48.2403 32.4956L57.8168 23.0133ZM54.9776 23.4061L56.762 23.4385L56.8068 20.4046L55.0224 20.3721L54.9776 23.4061Z" fill="black" fill-opacity="0.2"/>
</g>
<defs>
<filter id="filter0_d_70_307" x="0.924011" y="17.6" width="42.8617" height="16.4" filterUnits="userSpaceOnUse" color-interpolation-filters="sRGB">
<feFlood flood-opacity="0" result="BackgroundImageFix"/>
<feColorMatrix in="SourceAlpha" type="matrix" values="0 0 0 0 0 0 0 0 0 0 0 0 0 0 0 0 0 0 127 0" result="hardAlpha"/>
<feOffset dy="4"/>
<feGaussianBlur stdDeviation="2"/>
<feComposite in2="hardAlpha" operator="out"/>
<feColorMatrix type="matrix" values="0 0 0 0 0 0 0 0 0 0 0 0 0 0 0 0 0 0 0.25 0"/>
<feBlend mode="normal" in2="BackgroundImageFix" result="effect1_dropShadow_70_307"/>
<feBlend mode="normal" in="SourceGraphic" in2="effect1_dropShadow_70_307" result="shape"/>
</filter>
<filter id="filter1_d_70_307" x="41.7253" y="10.5788" width="20.5417" height="30.3423" filterUnits="userSpaceOnUse" color-interpolation-filters="sRGB">
<feFlood flood-opacity="0" result="BackgroundImageFix"/>
<feColorMatrix in="SourceAlpha" type="matrix" values="0 0 0 0 0 0 0 0 0 0 0 0 0 0 0 0 0 0 127 0" result="hardAlpha"/>
<feOffset dy="4"/>
<feGaussianBlur stdDeviation="2"/>
<feComposite in2="hardAlpha" operator="out"/>
<feColorMatrix type="matrix" values="0 0 0 0 0 0 0 0 0 0 0 0 0 0 0 0 0 0 0.25 0"/>
<feBlend mode="normal" in2="BackgroundImageFix" result="effect1_dropShadow_70_307"/>
<feBlend mode="normal" in="SourceGraphic" in2="effect1_dropShadow_70_307" result="shape"/>
</filter>
</defs>
</svg>
