<svg width="33" height="35" viewBox="0 0 33 35" fill="none" xmlns="http://www.w3.org/2000/svg">
<g filter="url(#filter0_d_228_56)">
<path d="M14.4306 21.6507C16.5976 21.6507 18.5959 20.9206 20.2308 19.7039L26.3813 26.1122C26.6668 26.4096 27.0431 26.5583 27.4454 26.5583C28.2888 26.5583 28.8857 25.8824 28.8857 25.0171C28.8857 24.6115 28.7559 24.2194 28.4704 23.9355L22.3588 17.5542C23.6434 15.7967 24.409 13.62 24.409 11.2541C24.409 5.53523 19.9194 0.857422 14.4306 0.857422C8.95484 0.857422 4.45224 5.52171 4.45224 11.2541C4.45224 16.9729 8.94187 21.6507 14.4306 21.6507ZM14.4306 19.4064C10.1486 19.4064 6.60622 15.7156 6.60622 11.2541C6.60622 6.79256 10.1486 3.10169 14.4306 3.10169C18.7126 3.10169 22.255 6.79256 22.255 11.2541C22.255 15.7156 18.7126 19.4064 14.4306 19.4064Z" fill="#758B8B"/>
<path d="M14.4306 21.6507C16.5976 21.6507 18.5959 20.9206 20.2308 19.7039L26.3813 26.1122C26.6668 26.4096 27.0431 26.5583 27.4454 26.5583C28.2888 26.5583 28.8857 25.8824 28.8857 25.0171C28.8857 24.6115 28.7559 24.2194 28.4704 23.9355L22.3588 17.5542C23.6434 15.7967 24.409 13.62 24.409 11.2541C24.409 5.53523 19.9194 0.857422 14.4306 0.857422C8.95484 0.857422 4.45224 5.52171 4.45224 11.2541C4.45224 16.9729 8.94187 21.6507 14.4306 21.6507ZM14.4306 19.4064C10.1486 19.4064 6.60622 15.7156 6.60622 11.2541C6.60622 6.79256 10.1486 3.10169 14.4306 3.10169C18.7126 3.10169 22.255 6.79256 22.255 11.2541C22.255 15.7156 18.7126 19.4064 14.4306 19.4064Z" fill="black" fill-opacity="0.2"/>
</g>
<defs>
<filter id="filter0_d_228_56" x="0.45224" y="0.857422" width="32.4334" height="33.7009" filterUnits="userSpaceOnUse" color-interpolation-filters="sRGB">
<feFlood flood-opacity="0" result="BackgroundImageFix"/>
<feColorMatrix in="SourceAlpha" type="matrix" values="0 0 0 0 0 0 0 0 0 0 0 0 0 0 0 0 0 0 127 0" result="hardAlpha"/>
<feOffset dy="4"/>
<feGaussianBlur stdDeviation="2"/>
<feComposite in2="hardAlpha" operator="out"/>
<feColorMatrix type="matrix" values="0 0 0 0 0 0 0 0 0 0 0 0 0 0 0 0 0 0 0.25 0"/>
<feBlend mode="normal" in2="BackgroundImageFix" result="effect1_dropShadow_228_56"/>
<feBlend mode="normal" in="SourceGraphic" in2="effect1_dropShadow_228_56" result="shape"/>
</filter>
</defs>
</svg>
